# Blender 4.1.1
# www.blender.org
mtllib smooth_step.mtl
o Cube
v 1.000000 0.000000 -1.000000
v 1.000000 0.000000 1.000000
v -1.000000 0.500000 -1.000000
v -1.000000 0.000000 -1.000000
v -1.000000 0.500000 1.000000
v -1.000000 0.000000 1.000000
v 0.975000 0.500000 -1.000000
v 1.000000 0.475000 -1.000000
v 0.978911 0.499692 -1.000000
v 0.982725 0.498776 -1.000000
v 0.986350 0.497275 -1.000000
v 0.989695 0.495225 -1.000000
v 0.992678 0.492678 -1.000000
v 0.995225 0.489695 -1.000000
v 0.997275 0.486350 -1.000000
v 0.998776 0.482725 -1.000000
v 0.999692 0.478911 -1.000000
v 1.000000 0.475000 1.000000
v 0.975000 0.500000 1.000000
v 0.999692 0.478911 1.000000
v 0.998776 0.482725 1.000000
v 0.997275 0.486350 1.000000
v 0.995225 0.489695 1.000000
v 0.992678 0.492678 1.000000
v 0.989695 0.495225 1.000000
v 0.986350 0.497275 1.000000
v 0.982725 0.498776 1.000000
v 0.978911 0.499692 1.000000
vn -0.0000 -0.0000 1.0000
vn -1.0000 -0.0000 -0.0000
vn -0.0000 -1.0000 -0.0000
vn -0.0000 1.0000 -0.0000
vn 1.0000 -0.0000 -0.0000
vn 0.0785 0.9969 -0.0000
vn 0.2334 0.9724 -0.0000
vn 0.3827 0.9239 -0.0000
vn 0.5225 0.8526 -0.0000
vn 0.6494 0.7604 -0.0000
vn 0.7604 0.6494 -0.0000
vn 0.8526 0.5225 -0.0000
vn 0.9239 0.3827 -0.0000
vn 0.9724 0.2334 -0.0000
vn 0.9969 0.0785 -0.0000
vn -0.0000 -0.0000 -1.0000
vt 0.375000 0.750000
vt 0.612500 0.750000
vt 0.614455 0.750039
vt 0.616363 0.750153
vt 0.618175 0.750341
vt 0.619847 0.750597
vt 0.621339 0.750915
vt 0.622613 0.751288
vt 0.623638 0.751706
vt 0.624388 0.752159
vt 0.624846 0.752636
vt 0.625000 0.753125
vt 0.625000 1.000000
vt 0.375000 1.000000
vt 0.375000 0.000000
vt 0.625000 0.000000
vt 0.625000 0.250000
vt 0.375000 0.250000
vt 0.125000 0.500000
vt 0.375000 0.500000
vt 0.125000 0.750000
vt 0.628125 0.500000
vt 0.875000 0.500000
vt 0.875000 0.750000
vt 0.628125 0.750000
vt 0.612500 0.500000
vt 0.627636 0.750000
vt 0.627636 0.500000
vt 0.627159 0.750000
vt 0.627159 0.500000
vt 0.626706 0.750000
vt 0.626706 0.500000
vt 0.626288 0.750000
vt 0.626288 0.500000
vt 0.625000 0.750000
vt 0.625000 0.500000
vt 0.619847 0.750000
vt 0.619847 0.500000
vt 0.618175 0.750000
vt 0.618175 0.500000
vt 0.616363 0.750000
vt 0.616363 0.500000
vt 0.614455 0.750000
vt 0.614455 0.500000
vt 0.625000 0.496875
vt 0.624846 0.497364
vt 0.624388 0.497841
vt 0.623638 0.498294
vt 0.622613 0.498712
vt 0.621339 0.499085
vt 0.619847 0.499403
vt 0.618175 0.499659
vt 0.616363 0.499847
vt 0.614455 0.499962
s 0
usemtl Material
f 2/1/1 18/2/1 20/3/1 21/4/1 22/5/1 23/6/1 24/7/1 25/8/1 26/9/1 27/10/1 28/11/1 19/12/1 5/13/1 6/14/1
f 6/15/2 5/16/2 3/17/2 4/18/2
f 4/19/3 1/20/3 2/1/3 6/21/3
f 7/22/4 3/23/4 5/24/4 19/25/4
f 1/20/5 8/26/5 18/2/5 2/1/5
f 7/22/6 19/25/6 28/27/6 9/28/6
f 9/28/7 28/27/7 27/29/7 10/30/7
f 10/30/8 27/29/8 26/31/8 11/32/8
f 11/32/9 26/31/9 25/33/9 12/34/9
f 12/34/10 25/33/10 24/35/10 13/36/10
f 13/36/11 24/35/11 23/37/11 14/38/11
f 14/38/12 23/37/12 22/39/12 15/40/12
f 15/40/13 22/39/13 21/41/13 16/42/13
f 16/42/14 21/41/14 20/43/14 17/44/14
f 17/44/15 20/43/15 18/2/15 8/26/15
f 4/18/16 3/17/16 7/45/16 9/46/16 10/47/16 11/48/16 12/49/16 13/50/16 14/51/16 15/52/16 16/53/16 17/54/16 8/26/16 1/20/16
